HIERARCHY
ROOT Pelvis
{
	OFFSET 0.000000 0.000000 0.000000
	CHANNELS 6 Xposition Yposition Zposition Zrotation Yrotation Xrotation 
	JOINT Left_hip
	{
		OFFSET 0.076090 -0.089427 -0.010735
		CHANNELS 3 Zrotation Yrotation Xrotation
		JOINT Left_knee
		{
			OFFSET 0.030200 -0.359518 -0.003501
			CHANNELS 3 Zrotation Yrotation Xrotation
			JOINT Left_ankle
			{
				OFFSET -0.011005 -0.371022 -0.045888
				CHANNELS 3 Zrotation Yrotation Xrotation
				JOINT Left_foot
				{
					OFFSET 0.023930 -0.052103 0.111084
					CHANNELS 3 Zrotation Yrotation Xrotation
					End Site
					{
						OFFSET 0.000000 0.000000 0.000000
					}
				}
			}
		}
	}
	JOINT Right_hip
	{
		OFFSET -0.073836 -0.088112 -0.007709
		CHANNELS 3 Zrotation Yrotation Xrotation
		JOINT Right_knee
		{
			OFFSET -0.035715 -0.367809 -0.006536
			CHANNELS 3 Zrotation Yrotation Xrotation
			JOINT Right_ankle
			{
				OFFSET 0.013718 -0.371958 -0.043815
				CHANNELS 3 Zrotation Yrotation Xrotation
				JOINT Right_foot
				{
					OFFSET -0.021936 -0.046387 0.114542
					CHANNELS 3 Zrotation Yrotation Xrotation
					End Site
					{
						OFFSET 0.000000 0.000000 0.000000
					}
				}
			}
		}
	}
	JOINT Spine1
	{
		OFFSET -0.001865 0.102064 -0.019455
		CHANNELS 3 Zrotation Yrotation Xrotation
		JOINT Spine2
		{
			OFFSET 0.003082 0.129260 -0.001938
			CHANNELS 3 Zrotation Yrotation Xrotation
			JOINT Spine3
			{
				OFFSET 0.001104 0.048093 0.026561
				CHANNELS 3 Zrotation Yrotation Xrotation
				JOINT Neck
				{
					OFFSET -0.002010 0.204222 -0.047183
					CHANNELS 3 Zrotation Yrotation Xrotation
					JOINT Head
					{
						OFFSET 0.005050 0.063649 0.048489
						CHANNELS 3 Zrotation Yrotation Xrotation
						End Site
						{
							OFFSET 0.000000 0.000000 0.000000
						}
					}
				}
				JOINT Left_collar
				{
					OFFSET 0.072979 0.114065 -0.031633
					CHANNELS 3 Zrotation Yrotation Xrotation
					JOINT Left_shoulder
					{
						OFFSET 0.083419 0.032092 -0.006530
						CHANNELS 3 Zrotation Yrotation Xrotation
						JOINT Left_elbow
						{
							OFFSET 0.239393 -0.012014 -0.025060
							CHANNELS 3 Zrotation Yrotation Xrotation
							JOINT Left_wrist
							{
								OFFSET 0.227297 0.008116 0.000384
								CHANNELS 3 Zrotation Yrotation Xrotation
								JOINT Left_palm
								{
									OFFSET 0.074607 -0.009248 -0.012277
									CHANNELS 3 Zrotation Yrotation Xrotation
									End Site
									{
										OFFSET 0.000000 0.000000 0.000000
									}
								}
							}
						}
					}
				}
				JOINT Right_collar
				{
					OFFSET -0.074980 0.111880 -0.037894
					CHANNELS 3 Zrotation Yrotation Xrotation
					JOINT Right_shoulder
					{
						OFFSET -0.087565 0.034353 -0.009323
						CHANNELS 3 Zrotation Yrotation Xrotation
						JOINT Right_elbow
						{
							OFFSET -0.236838 -0.013719 -0.019794
							CHANNELS 3 Zrotation Yrotation Xrotation
							JOINT Right_wrist
							{
								OFFSET -0.235053 0.006433 -0.003853
								CHANNELS 3 Zrotation Yrotation Xrotation
								JOINT Right_palm
								{
									OFFSET -0.075499 -0.006894 -0.009792
									CHANNELS 3 Zrotation Yrotation Xrotation
									End Site
									{
										OFFSET 0.000000 0.000000 0.000000
									}
								}
							}
						}
					}
				}
			}
		}
	}
}
MOTION
Frames: 8
Frame Time: 0.100000
0.000000 0.000000 0.000000 173.882158 30.358432 -14.131468 -0.735819 1.173815 8.561108 -1.707238 -7.680750 -7.209148 0.477822 8.836454 -6.885868 1.889545 7.190409 -2.681329 2.280349 -0.038849 7.504199 2.719846 6.847976 -7.489197 5.242221 -10.530454 -9.072191 -7.941469 7.771952 5.798888 3.016246 0.683388 2.396087 1.617181 -2.095726 2.108444 1.475942 -1.530703 0.562332 -1.302239 2.417914 -16.078832 -4.804112 -4.842825 -1.845308 -31.291947 -1.723256 2.835910 -52.794974 -5.102347 9.289853 2.987466 -8.246846 10.244973 -7.634281 -0.866700 2.474561 -10.491202 -5.483321 -12.122157 31.322574 6.228495 3.587635 45.611753 5.148434 13.925440 -6.477869 11.771154 -2.595633 4.831379 -0.955328 1.444071 13.670561 7.884987 -7.523292 
0.001317 0.000582 -0.003971 173.754949 31.301374 -14.496724 -0.818003 0.658638 8.381336 -1.749673 -7.694374 -7.001812 1.254918 8.266898 -6.666492 0.614203 7.775100 -2.412243 2.319747 -0.133929 7.456193 2.642847 6.117365 -7.304879 4.532588 -10.782667 -9.140434 -6.675026 8.345934 6.785629 2.775269 0.835555 2.103569 1.570854 -2.101322 1.691263 1.303470 -1.332645 -0.284460 -1.257552 3.340246 -13.914266 -5.106003 -4.160538 0.856196 -31.228047 -4.579671 2.679951 -51.438439 -9.179817 9.970299 3.748444 -13.393593 9.462941 -7.083930 -0.955133 2.527127 -10.240547 -5.428231 -10.709052 31.638855 8.284205 3.851151 45.016058 7.092771 14.201923 -6.590999 12.216215 -2.788183 5.119896 -1.072732 2.262622 13.269481 7.932314 -7.018208 
0.002073 0.000882 -0.007327 173.555692 32.113085 -14.871250 -0.836340 0.126592 8.366483 -1.764741 -7.760860 -7.018619 1.564690 7.811219 -6.393125 0.085681 8.329402 -2.442662 2.413941 -0.279228 7.394773 2.550682 5.497621 -7.035280 4.526426 -11.241832 -9.221381 -6.522695 9.324157 7.110585 2.468024 0.926548 1.711991 1.579956 -2.121915 1.264056 1.210667 -1.211585 -0.892737 -0.716564 4.274739 -12.008212 -4.863723 -3.470819 3.685766 -31.018460 -6.855569 2.438743 -50.564732 -12.950551 10.427994 4.628780 -19.085915 8.027345 -5.945970 -1.369869 2.006752 -9.987223 -5.432550 -9.256719 31.626167 9.752334 4.000316 44.749748 8.324261 14.834626 -6.835995 14.471330 -2.761506 5.018814 -0.849763 2.692517 12.842904 7.950296 -6.510593 
0.003225 0.001106 -0.011338 173.430832 32.503618 -15.247315 -0.899804 -0.236338 8.245424 -1.797706 -7.688918 -6.759534 1.781413 7.542528 -6.198737 -0.160631 8.762564 -2.609081 2.438866 -0.292871 7.274528 2.499039 5.065830 -6.676452 4.616261 -11.404490 -9.192843 -6.629115 9.871216 7.209535 2.259606 1.029526 1.509083 1.636581 -2.136357 1.096092 1.229777 -1.173690 -1.203349 -0.315480 4.662684 -10.392490 -4.560329 -3.049658 5.570556 -30.779588 -8.394356 2.316228 -50.647897 -15.519327 10.825418 5.542624 -23.234948 6.819953 -5.259391 -1.627905 1.330566 -9.784749 -5.377794 -8.249690 31.327922 10.642224 4.089720 44.937504 9.089501 15.287790 -7.080836 16.926318 -2.768906 5.125143 -0.652308 2.575696 12.501063 7.921589 -6.128115 
0.003503 0.001399 -0.014748 173.333425 32.700083 -15.614785 -0.955227 -0.354913 8.263738 -1.833620 -7.737802 -6.570260 1.741915 7.465560 -6.029971 0.002695 8.897046 -2.915514 2.427292 -0.266048 7.243505 2.451440 4.943406 -6.335313 4.689970 -11.589561 -9.195540 -6.871265 10.128201 7.114431 2.185542 0.943024 1.378369 1.685720 -2.250208 1.103516 1.178930 -1.289006 -1.118568 0.054740 4.734223 -9.348124 -4.420128 -2.896153 6.786421 -30.780652 -8.594550 2.539987 -51.049056 -16.026674 11.207356 5.547415 -24.799163 6.945920 -5.075919 -1.861692 1.032657 -9.739351 -5.342364 -8.062670 31.245315 10.639950 4.168329 45.400384 9.085593 15.710491 -7.055357 18.311046 -2.422839 5.128289 -0.478112 2.367969 12.363406 7.887579 -5.997321 
0.004065 0.001471 -0.017417 173.380839 32.140764 -15.663294 -0.815995 -0.220833 8.295823 -2.035999 -7.649749 -6.716031 1.326347 7.688264 -5.696392 0.696104 8.663591 -3.303636 2.396832 -0.174986 6.930883 2.489141 5.246553 -5.979641 5.152208 -11.556943 -8.974638 -7.735210 10.130250 6.430335 2.305155 0.923835 1.449721 1.667953 -2.067450 1.162339 1.188046 -1.258741 -0.636532 -0.026027 5.297325 -9.607959 -4.523284 -2.320330 6.815853 -30.751055 -7.520571 2.689456 -51.798164 -14.512245 11.283516 4.658689 -22.362462 7.946679 -5.388482 -1.980479 1.305985 -9.911729 -5.414998 -8.841170 31.142271 9.773506 4.292561 46.027526 8.459005 15.789188 -6.741675 17.467599 -2.245721 5.070288 -0.430144 1.962204 12.593217 7.832677 -6.337973 
0.004447 0.001192 -0.019922 173.404017 31.695487 -15.309326 -0.730468 -0.066585 7.940082 -2.098733 -7.559868 -6.983821 0.521001 8.003776 -5.052074 2.003607 8.120569 -3.870878 2.343644 -0.224244 6.405529 2.490728 5.725026 -6.030568 6.312877 -11.824462 -8.286918 -9.940225 10.387250 4.891560 2.591248 0.815873 1.499977 1.535252 -1.923849 0.875649 1.353140 -1.308080 0.232457 -0.648120 7.743339 -11.137454 -4.812812 0.310438 6.140026 -30.172569 -5.938799 2.609881 -53.028525 -11.881123 10.945097 3.243156 -15.340625 9.379742 -6.084758 -1.601231 2.253120 -10.131738 -5.634289 -10.365543 30.532851 8.346580 4.286457 46.854118 7.652869 15.703567 -5.805510 13.851974 -1.798556 5.127815 -0.470097 1.851804 13.044064 7.699020 -7.041022 
0.006487 0.001013 -0.024310 173.475981 31.349918 -14.677696 -0.783793 0.047656 6.907788 -2.167177 -7.218822 -6.782553 -0.069223 8.361801 -4.371635 2.965265 7.232101 -4.222650 2.325452 -0.087999 5.171713 2.440278 5.853028 -5.485826 7.072127 -11.747518 -7.627855 -11.656132 9.672227 3.518665 2.891321 0.787196 2.302644 1.252945 -1.787069 0.418941 1.558674 -1.247020 0.943322 -2.212591 9.267062 -14.430706 -4.873436 2.147666 3.262936 -28.510968 -5.079157 2.553494 -54.584553 -9.074987 10.805660 2.225713 -8.519020 11.374942 -7.016163 -1.362345 2.753407 -10.104147 -5.530486 -11.771256 29.083279 7.661876 4.461589 48.303807 6.726741 15.327282 -5.060471 9.834850 -1.029564 5.564180 -0.613933 1.079203 13.120197 7.391743 -7.733381 
